<?xml version="1.0" encoding="UTF-8" standalone="no"?>
<svg
   xmlns:dc="http://purl.org/dc/elements/1.1/"
   xmlns:cc="http://creativecommons.org/ns#"
   xmlns:rdf="http://www.w3.org/1999/02/22-rdf-syntax-ns#"
   xmlns:svg="http://www.w3.org/2000/svg"
   xmlns="http://www.w3.org/2000/svg"
   version="1.1"
   id="svg2"
   viewBox="0 0 292.14014 352.86278"
   height="99.585716mm"
   width="82.448441mm">
  <defs
     id="defs4" />
  <metadata
     id="metadata7">
    <rdf:RDF>
      <cc:Work
         rdf:about="">
        <dc:format>image/svg+xml</dc:format>
        <dc:type
           rdf:resource="http://purl.org/dc/dcmitype/StillImage" />
        <dc:title></dc:title>
      </cc:Work>
    </rdf:RDF>
  </metadata>
  <g
     transform="translate(-103.92604,-324.14479)"
     id="layer1">
    <g
       id="g3353">
      <path
         style="fill:#ffffff;fill-rule:evenodd;stroke:#999999;stroke-width:1px;stroke-linecap:butt;stroke-linejoin:miter;stroke-opacity:1"
         d="m 122.14258,342.36133 0,316.42969 255,0 0,-257.85743 -58.57031,-58.57226 -196.42969,0 z"
         id="rect3340" />
      <path
         style="fill:#cccccc;fill-rule:evenodd;stroke:#999999;stroke-width:1px;stroke-linecap:butt;stroke-linejoin:miter;stroke-opacity:1"
         d="m 320.71484,344.50391 0,56.42968 56.42774,0 -56.42774,-56.42968 z"
         id="rect3342" />
    </g>
    <text
       id="text3336"
       y="601.45184"
       x="117.01418"
       style="font-style:normal;font-weight:normal;font-size:277.49197388px;line-height:125%;font-family:sans-serif;letter-spacing:0px;word-spacing:0px;fill:#000000;fill-opacity:1;stroke:none;stroke-width:1px;stroke-linecap:butt;stroke-linejoin:miter;stroke-opacity:1"
       xml:space="preserve"><tspan
         style="font-style:normal;font-variant:normal;font-weight:normal;font-stretch:normal;font-family:Verdana;-inkscape-font-specification:Verdana;fill:#666666"
         y="601.45184"
         x="117.01418"
         id="tspan3338">L</tspan></text>
    <g
       style="font-style:normal;font-weight:normal;font-size:277.49197388px;line-height:125%;font-family:sans-serif;letter-spacing:0px;word-spacing:0px;fill:#000000;fill-opacity:1;stroke:none;stroke-width:1px;stroke-linecap:butt;stroke-linejoin:miter;stroke-opacity:1"
       id="g3405"
       transform="matrix(0.72578005,0,0,1,41.940917,-102.02463)" />
    <g
       transform="matrix(0.44086168,0,0,1,195.30056,-34.643709)"
       id="g3413"
       style="font-style:normal;font-weight:normal;font-size:277.49197388px;line-height:125%;font-family:sans-serif;letter-spacing:0px;word-spacing:0px;fill:#000000;fill-opacity:1;stroke:none;stroke-width:1px;stroke-linecap:butt;stroke-linejoin:miter;stroke-opacity:1">
      <path
         id="path3415"
         transform="translate(118.57143,166.07228)"
         d="m 67.96875,411.5332 0,23.84571 127.63477,0 0,-23.84571 -50.4043,0 -50.404298,0 -26.826172,0 z"
         style="font-style:normal;font-variant:normal;font-weight:normal;font-stretch:normal;font-family:Verdana;-inkscape-font-specification:Verdana;fill:#666666" />
    </g>
    <g
       style="font-style:normal;font-weight:normal;font-size:277.49197388px;line-height:125%;font-family:sans-serif;letter-spacing:0px;word-spacing:0px;fill:#000000;fill-opacity:1;stroke:none;stroke-width:1px;stroke-linecap:butt;stroke-linejoin:miter;stroke-opacity:1"
       id="g3417"
       transform="matrix(0.44086168,0,0,1,195.30056,-68.33413)">
      <path
         style="font-style:normal;font-variant:normal;font-weight:normal;font-stretch:normal;font-family:Verdana;-inkscape-font-specification:Verdana;fill:#666666"
         d="m 67.96875,411.5332 0,23.84571 127.63477,0 0,-23.84571 -50.4043,0 -50.404298,0 -26.826172,0 z"
         transform="translate(118.57143,166.07228)"
         id="path3419" />
    </g>
    <g
       transform="matrix(0.44086168,0,0,1,195.30056,-102.02463)"
       id="g3421"
       style="font-style:normal;font-weight:normal;font-size:277.49197388px;line-height:125%;font-family:sans-serif;letter-spacing:0px;word-spacing:0px;fill:#000000;fill-opacity:1;stroke:none;stroke-width:1px;stroke-linecap:butt;stroke-linejoin:miter;stroke-opacity:1">
      <path
         id="path3423"
         transform="translate(118.57143,166.07228)"
         d="m 67.96875,411.5332 0,23.84571 127.63477,0 0,-23.84571 -50.4043,0 -50.404298,0 -26.826172,0 z"
         style="font-style:normal;font-variant:normal;font-weight:normal;font-stretch:normal;font-family:Verdana;-inkscape-font-specification:Verdana;fill:#666666" />
    </g>
    <g
       style="font-style:normal;font-weight:normal;font-size:277.49197388px;line-height:125%;font-family:sans-serif;letter-spacing:0px;word-spacing:0px;fill:#000000;fill-opacity:1;stroke:none;stroke-width:1px;stroke-linecap:butt;stroke-linejoin:miter;stroke-opacity:1"
       id="g3425"
       transform="matrix(0.60743152,0,0,1,164.22859,-150.00085)">
      <path
         style="font-style:normal;font-variant:normal;font-weight:normal;font-stretch:normal;font-family:Verdana;-inkscape-font-specification:Verdana;fill:#666666"
         d="m 186.54018,591.89119 0,23.84571 92.63477,0 0,-23.84571 -36.58244,0 -36.58243,0 -19.4699,0 z"
         id="path3427" />
    </g>
    <g
       style="font-style:normal;font-weight:normal;font-size:277.49197388px;line-height:125%;font-family:sans-serif;letter-spacing:0px;word-spacing:0px;fill:#000000;fill-opacity:1;stroke:none;stroke-width:1px;stroke-linecap:butt;stroke-linejoin:miter;stroke-opacity:1"
       id="g3429"
       transform="matrix(0.44086168,0,0,1,101.35637,-34.643709)">
      <path
         style="font-style:normal;font-variant:normal;font-weight:normal;font-stretch:normal;font-family:Verdana;-inkscape-font-specification:Verdana;fill:#666666"
         d="m 67.96875,411.5332 0,23.84571 127.63477,0 0,-23.84571 -50.4043,0 -50.404298,0 -26.826172,0 z"
         transform="translate(118.57143,166.07228)"
         id="path3431" />
    </g>
    <g
       transform="matrix(0.44086168,0,0,1,101.35637,-68.33413)"
       id="g3433"
       style="font-style:normal;font-weight:normal;font-size:277.49197388px;line-height:125%;font-family:sans-serif;letter-spacing:0px;word-spacing:0px;fill:#000000;fill-opacity:1;stroke:none;stroke-width:1px;stroke-linecap:butt;stroke-linejoin:miter;stroke-opacity:1">
      <path
         id="path3435"
         transform="translate(118.57143,166.07228)"
         d="m 67.96875,411.5332 0,23.84571 127.63477,0 0,-23.84571 -50.4043,0 -50.404298,0 -26.826172,0 z"
         style="font-style:normal;font-variant:normal;font-weight:normal;font-stretch:normal;font-family:Verdana;-inkscape-font-specification:Verdana;fill:#666666" />
    </g>
    <g
       style="font-style:normal;font-weight:normal;font-size:277.49197388px;line-height:125%;font-family:sans-serif;letter-spacing:0px;word-spacing:0px;fill:#000000;fill-opacity:1;stroke:none;stroke-width:1px;stroke-linecap:butt;stroke-linejoin:miter;stroke-opacity:1"
       id="g3437"
       transform="matrix(0.44086168,0,0,1,101.35637,-102.02463)">
      <path
         style="font-style:normal;font-variant:normal;font-weight:normal;font-stretch:normal;font-family:Verdana;-inkscape-font-specification:Verdana;fill:#666666"
         d="m 67.96875,411.5332 0,23.84571 127.63477,0 0,-23.84571 -50.4043,0 -50.404298,0 -26.826172,0 z"
         transform="translate(118.57143,166.07228)"
         id="path3439" />
    </g>
    <g
       transform="matrix(0.60743152,0,0,1,70.284402,-150.00085)"
       id="g3441"
       style="font-style:normal;font-weight:normal;font-size:277.49197388px;line-height:125%;font-family:sans-serif;letter-spacing:0px;word-spacing:0px;fill:#000000;fill-opacity:1;stroke:none;stroke-width:1px;stroke-linecap:butt;stroke-linejoin:miter;stroke-opacity:1">
      <path
         id="path3443"
         d="m 186.54018,591.89119 0,23.84571 92.63477,0 0,-23.84571 -36.58244,0 -36.58243,0 -19.4699,0 z"
         style="font-style:normal;font-variant:normal;font-weight:normal;font-stretch:normal;font-family:Verdana;-inkscape-font-specification:Verdana;fill:#666666" />
    </g>
  </g>
</svg>
